<mxfile host="app.diagrams.net" agent="Mozilla/5.0 (Windows NT 10.0; Win64; x64) AppleWebKit/537.36 (KHTML, like Gecko) Chrome/131.0.0.0 Safari/537.36" version="24.9.3">
  <diagram name="Сторінка-1" id="VE9j6jnPMMUFEDSMyhKw">
    <mxGraphModel grid="1" page="1" gridSize="10" guides="1" tooltips="1" connect="1" arrows="1" fold="1" pageScale="1" pageWidth="827" pageHeight="1169" math="0" shadow="0">
      <root>
        <mxCell id="0" />
        <mxCell id="1" parent="0" />
        <mxCell id="PBQv_WZdV8IFXyOSSWlH-5" value="" style="edgeStyle=orthogonalEdgeStyle;rounded=0;orthogonalLoop=1;jettySize=auto;html=1;" edge="1" parent="1" source="PBQv_WZdV8IFXyOSSWlH-1" target="PBQv_WZdV8IFXyOSSWlH-4">
          <mxGeometry relative="1" as="geometry" />
        </mxCell>
        <mxCell id="PBQv_WZdV8IFXyOSSWlH-1" value="Start" style="ellipse;whiteSpace=wrap;html=1;fillColor=#d5e8d4;strokeColor=#82b366;" vertex="1" parent="1">
          <mxGeometry x="354" y="10" width="120" height="70" as="geometry" />
        </mxCell>
        <mxCell id="PBQv_WZdV8IFXyOSSWlH-6" style="edgeStyle=orthogonalEdgeStyle;rounded=0;orthogonalLoop=1;jettySize=auto;html=1;" edge="1" parent="1" source="PBQv_WZdV8IFXyOSSWlH-4" target="PBQv_WZdV8IFXyOSSWlH-7">
          <mxGeometry relative="1" as="geometry">
            <mxPoint x="414" y="280" as="targetPoint" />
          </mxGeometry>
        </mxCell>
        <mxCell id="PBQv_WZdV8IFXyOSSWlH-4" value="int number;" style="whiteSpace=wrap;html=1;" vertex="1" parent="1">
          <mxGeometry x="354" y="165" width="120" height="60" as="geometry" />
        </mxCell>
        <mxCell id="PBQv_WZdV8IFXyOSSWlH-8" style="edgeStyle=orthogonalEdgeStyle;rounded=0;orthogonalLoop=1;jettySize=auto;html=1;" edge="1" parent="1" source="PBQv_WZdV8IFXyOSSWlH-7" target="PBQv_WZdV8IFXyOSSWlH-9">
          <mxGeometry relative="1" as="geometry">
            <mxPoint x="410" y="380" as="targetPoint" />
          </mxGeometry>
        </mxCell>
        <mxCell id="PBQv_WZdV8IFXyOSSWlH-7" value="cout &lt;&lt; &quot;Введіть число: &quot;; cin &gt;&gt; number;" style="shape=parallelogram;perimeter=parallelogramPerimeter;whiteSpace=wrap;html=1;fixedSize=1;" vertex="1" parent="1">
          <mxGeometry x="336" y="250" width="156" height="70" as="geometry" />
        </mxCell>
        <mxCell id="PBQv_WZdV8IFXyOSSWlH-10" style="edgeStyle=orthogonalEdgeStyle;rounded=0;orthogonalLoop=1;jettySize=auto;html=1;" edge="1" parent="1" source="PBQv_WZdV8IFXyOSSWlH-9" target="PBQv_WZdV8IFXyOSSWlH-11">
          <mxGeometry relative="1" as="geometry">
            <mxPoint x="414" y="490" as="targetPoint" />
          </mxGeometry>
        </mxCell>
        <mxCell id="PBQv_WZdV8IFXyOSSWlH-9" value="if (number &lt; 0)" style="rhombus;whiteSpace=wrap;html=1;" vertex="1" parent="1">
          <mxGeometry x="361" y="360" width="106" height="80" as="geometry" />
        </mxCell>
        <mxCell id="PBQv_WZdV8IFXyOSSWlH-12" style="edgeStyle=orthogonalEdgeStyle;rounded=0;orthogonalLoop=1;jettySize=auto;html=1;" edge="1" parent="1" source="PBQv_WZdV8IFXyOSSWlH-11" target="PBQv_WZdV8IFXyOSSWlH-13">
          <mxGeometry relative="1" as="geometry">
            <mxPoint x="414" y="560" as="targetPoint" />
          </mxGeometry>
        </mxCell>
        <mxCell id="PBQv_WZdV8IFXyOSSWlH-11" value="number = -number;" style="rounded=0;whiteSpace=wrap;html=1;" vertex="1" parent="1">
          <mxGeometry x="354" y="460" width="120" height="60" as="geometry" />
        </mxCell>
        <mxCell id="PBQv_WZdV8IFXyOSSWlH-15" style="edgeStyle=orthogonalEdgeStyle;rounded=0;orthogonalLoop=1;jettySize=auto;html=1;" edge="1" parent="1" source="PBQv_WZdV8IFXyOSSWlH-13" target="PBQv_WZdV8IFXyOSSWlH-16">
          <mxGeometry relative="1" as="geometry">
            <mxPoint x="414" y="670" as="targetPoint" />
          </mxGeometry>
        </mxCell>
        <mxCell id="PBQv_WZdV8IFXyOSSWlH-13" value="int sum = 0;" style="rounded=0;whiteSpace=wrap;html=1;" vertex="1" parent="1">
          <mxGeometry x="354" y="560" width="120" height="60" as="geometry" />
        </mxCell>
        <mxCell id="PBQv_WZdV8IFXyOSSWlH-17" style="edgeStyle=orthogonalEdgeStyle;rounded=0;orthogonalLoop=1;jettySize=auto;html=1;" edge="1" parent="1" source="PBQv_WZdV8IFXyOSSWlH-16" target="PBQv_WZdV8IFXyOSSWlH-18">
          <mxGeometry relative="1" as="geometry">
            <mxPoint x="414" y="800" as="targetPoint" />
          </mxGeometry>
        </mxCell>
        <mxCell id="PBQv_WZdV8IFXyOSSWlH-16" value="while (number &gt; 0)" style="rhombus;whiteSpace=wrap;html=1;" vertex="1" parent="1">
          <mxGeometry x="361" y="660" width="106" height="90" as="geometry" />
        </mxCell>
        <mxCell id="PBQv_WZdV8IFXyOSSWlH-19" style="edgeStyle=orthogonalEdgeStyle;rounded=0;orthogonalLoop=1;jettySize=auto;html=1;entryX=1;entryY=0.5;entryDx=0;entryDy=0;" edge="1" parent="1" source="PBQv_WZdV8IFXyOSSWlH-18" target="PBQv_WZdV8IFXyOSSWlH-16">
          <mxGeometry relative="1" as="geometry">
            <mxPoint x="590" y="680" as="targetPoint" />
            <Array as="points">
              <mxPoint x="591" y="825" />
              <mxPoint x="591" y="705" />
            </Array>
          </mxGeometry>
        </mxCell>
        <mxCell id="PBQv_WZdV8IFXyOSSWlH-20" style="edgeStyle=orthogonalEdgeStyle;rounded=0;orthogonalLoop=1;jettySize=auto;html=1;" edge="1" parent="1" source="PBQv_WZdV8IFXyOSSWlH-18" target="PBQv_WZdV8IFXyOSSWlH-21">
          <mxGeometry relative="1" as="geometry">
            <mxPoint x="414" y="950" as="targetPoint" />
          </mxGeometry>
        </mxCell>
        <mxCell id="PBQv_WZdV8IFXyOSSWlH-18" value="sum += number % 10; number /= 10;" style="rounded=0;whiteSpace=wrap;html=1;" vertex="1" parent="1">
          <mxGeometry x="351" y="790" width="126" height="70" as="geometry" />
        </mxCell>
        <mxCell id="PBQv_WZdV8IFXyOSSWlH-22" style="edgeStyle=orthogonalEdgeStyle;rounded=0;orthogonalLoop=1;jettySize=auto;html=1;" edge="1" parent="1" source="PBQv_WZdV8IFXyOSSWlH-21" target="PBQv_WZdV8IFXyOSSWlH-23">
          <mxGeometry relative="1" as="geometry">
            <mxPoint x="414" y="1050" as="targetPoint" />
          </mxGeometry>
        </mxCell>
        <mxCell id="PBQv_WZdV8IFXyOSSWlH-21" value="cout &lt;&lt; &quot;Сума цифр числа: &quot; &lt;&lt; sum &lt;&lt; endl;" style="rounded=0;whiteSpace=wrap;html=1;" vertex="1" parent="1">
          <mxGeometry x="354" y="920" width="120" height="60" as="geometry" />
        </mxCell>
        <mxCell id="PBQv_WZdV8IFXyOSSWlH-23" value="End" style="ellipse;whiteSpace=wrap;html=1;fillColor=#f8cecc;strokeColor=#b85450;" vertex="1" parent="1">
          <mxGeometry x="354" y="1010" width="120" height="80" as="geometry" />
        </mxCell>
      </root>
    </mxGraphModel>
  </diagram>
</mxfile>
